<svg id="visual" viewBox="0 0 900 600" width="900" height="600" xmlns="http://www.w3.org/2000/svg" xmlns:xlink="http://www.w3.org/1999/xlink" version="1.1"><rect x="0" y="0" width="900" height="600" fill="#ffffff"></rect><g transform="translate(725.9953416548433 409.23505690333303)"><path d="M315.8 -426.4C473 -390.4 708.2 -410.6 866.5 -320.4C1024.8 -230.3 1106.3 -29.7 1046.7 126.6C987.1 283 786.4 395.3 643.9 555.8C501.5 716.4 417.2 925.3 296.6 919.2C175.9 913.1 18.8 692.1 -173.4 621.5C-365.5 550.9 -592.8 630.7 -677.1 567.6C-761.5 504.6 -702.9 298.6 -619 156.1C-535.1 13.6 -425.8 -65.5 -345.5 -123C-265.1 -180.5 -213.6 -216.4 -160.9 -300.2C-108.1 -383.9 -54.1 -515.5 12.6 -535.1C79.3 -554.7 158.6 -462.4 315.8 -426.4" fill="#000000"></path></g></svg>