<svg id="visual" viewBox="0 0 900 600" width="900" height="600" xmlns="http://www.w3.org/2000/svg" xmlns:xlink="http://www.w3.org/1999/xlink" version="1.1"><rect x="0" y="0" width="900" height="600" fill="#ffffff"></rect><defs><linearGradient id="grad1_0" x1="33.3%" y1="100%" x2="100%" y2="0%"><stop offset="20%" stop-color="#212121" stop-opacity="1"></stop><stop offset="80%" stop-color="#212121" stop-opacity="1"></stop></linearGradient></defs><defs><linearGradient id="grad1_1" x1="33.3%" y1="100%" x2="100%" y2="0%"><stop offset="20%" stop-color="#212121" stop-opacity="1"></stop><stop offset="80%" stop-color="#404040" stop-opacity="1"></stop></linearGradient></defs><defs><linearGradient id="grad1_2" x1="33.3%" y1="100%" x2="100%" y2="0%"><stop offset="20%" stop-color="#636363" stop-opacity="1"></stop><stop offset="80%" stop-color="#404040" stop-opacity="1"></stop></linearGradient></defs><defs><linearGradient id="grad1_3" x1="33.3%" y1="100%" x2="100%" y2="0%"><stop offset="20%" stop-color="#636363" stop-opacity="1"></stop><stop offset="80%" stop-color="#878787" stop-opacity="1"></stop></linearGradient></defs><defs><linearGradient id="grad1_4" x1="33.3%" y1="100%" x2="100%" y2="0%"><stop offset="20%" stop-color="#aeaeae" stop-opacity="1"></stop><stop offset="80%" stop-color="#878787" stop-opacity="1"></stop></linearGradient></defs><defs><linearGradient id="grad1_5" x1="33.3%" y1="100%" x2="100%" y2="0%"><stop offset="20%" stop-color="#aeaeae" stop-opacity="1"></stop><stop offset="80%" stop-color="#d6d6d6" stop-opacity="1"></stop></linearGradient></defs><defs><linearGradient id="grad1_6" x1="33.3%" y1="100%" x2="100%" y2="0%"><stop offset="20%" stop-color="#ffffff" stop-opacity="1"></stop><stop offset="80%" stop-color="#d6d6d6" stop-opacity="1"></stop></linearGradient></defs><defs><linearGradient id="grad2_0" x1="0%" y1="100%" x2="66.7%" y2="0%"><stop offset="20%" stop-color="#212121" stop-opacity="1"></stop><stop offset="80%" stop-color="#212121" stop-opacity="1"></stop></linearGradient></defs><defs><linearGradient id="grad2_1" x1="0%" y1="100%" x2="66.7%" y2="0%"><stop offset="20%" stop-color="#404040" stop-opacity="1"></stop><stop offset="80%" stop-color="#212121" stop-opacity="1"></stop></linearGradient></defs><defs><linearGradient id="grad2_2" x1="0%" y1="100%" x2="66.7%" y2="0%"><stop offset="20%" stop-color="#404040" stop-opacity="1"></stop><stop offset="80%" stop-color="#636363" stop-opacity="1"></stop></linearGradient></defs><defs><linearGradient id="grad2_3" x1="0%" y1="100%" x2="66.7%" y2="0%"><stop offset="20%" stop-color="#878787" stop-opacity="1"></stop><stop offset="80%" stop-color="#636363" stop-opacity="1"></stop></linearGradient></defs><defs><linearGradient id="grad2_4" x1="0%" y1="100%" x2="66.7%" y2="0%"><stop offset="20%" stop-color="#878787" stop-opacity="1"></stop><stop offset="80%" stop-color="#aeaeae" stop-opacity="1"></stop></linearGradient></defs><defs><linearGradient id="grad2_5" x1="0%" y1="100%" x2="66.7%" y2="0%"><stop offset="20%" stop-color="#d6d6d6" stop-opacity="1"></stop><stop offset="80%" stop-color="#aeaeae" stop-opacity="1"></stop></linearGradient></defs><defs><linearGradient id="grad2_6" x1="0%" y1="100%" x2="66.7%" y2="0%"><stop offset="20%" stop-color="#d6d6d6" stop-opacity="1"></stop><stop offset="80%" stop-color="#ffffff" stop-opacity="1"></stop></linearGradient></defs><g transform="translate(900, 600)"><path d="M-540.8 0C-487.9 -46.1 -435.1 -92.3 -399.4 -129.8C-363.8 -167.3 -345.5 -196.2 -334.9 -243.3C-324.4 -290.5 -321.7 -355.9 -295.7 -406.9C-269.6 -457.9 -220.3 -494.5 -167.1 -514.4C-114 -534.3 -57 -537.6 0 -540.8L0 0Z" fill="#eaeaea"></path><path d="M-463.6 0C-418.2 -39.5 -372.9 -79.1 -342.4 -111.2C-311.8 -143.4 -296.1 -168.2 -287.1 -208.6C-278.1 -249 -275.7 -305.1 -253.4 -348.8C-231.1 -392.5 -188.8 -423.8 -143.3 -440.9C-97.7 -457.9 -48.8 -460.8 0 -463.6L0 0Z" fill="#c1c1c1"></path><path d="M-386.3 0C-348.5 -33 -310.8 -65.9 -285.3 -92.7C-259.9 -119.5 -246.8 -140.1 -239.2 -173.8C-231.7 -207.5 -229.8 -254.2 -211.2 -290.7C-192.6 -327.1 -157.3 -353.2 -119.4 -367.4C-81.4 -381.6 -40.7 -384 0 -386.3L0 0Z" fill="#9a9a9a"></path><path d="M-309 0C-278.8 -26.4 -248.6 -52.7 -228.3 -74.2C-207.9 -95.6 -197.4 -112.1 -191.4 -139.1C-185.4 -166 -183.8 -203.4 -168.9 -232.5C-154.1 -261.7 -125.9 -282.5 -95.5 -293.9C-65.1 -305.3 -32.6 -307.2 0 -309L0 0Z" fill="#757575"></path><path d="M-231.8 0C-209.1 -19.8 -186.5 -39.5 -171.2 -55.6C-155.9 -71.7 -148.1 -84.1 -143.5 -104.3C-139 -124.5 -137.9 -152.5 -126.7 -174.4C-115.6 -196.3 -94.4 -211.9 -71.6 -220.4C-48.8 -229 -24.4 -230.4 0 -231.8L0 0Z" fill="#515151"></path><path d="M-154.5 0C-139.4 -13.2 -124.3 -26.4 -114.1 -37.1C-103.9 -47.8 -98.7 -56.1 -95.7 -69.5C-92.7 -83 -91.9 -101.7 -84.5 -116.3C-77 -130.8 -62.9 -141.3 -47.8 -147C-32.6 -152.6 -16.3 -153.6 0 -154.5L0 0Z" fill="#303030"></path><path d="M-77.3 0C-69.7 -6.6 -62.2 -13.2 -57.1 -18.5C-52 -23.9 -49.4 -28 -47.8 -34.8C-46.3 -41.5 -46 -50.8 -42.2 -58.1C-38.5 -65.4 -31.5 -70.6 -23.9 -73.5C-16.3 -76.3 -8.1 -76.8 0 -77.3L0 0Z" fill="#212121"></path></g><g transform="translate(0, 0)"><path d="M540.8 0C515.3 50.5 489.8 101 476.5 154.8C463.2 208.7 462.2 265.8 437.5 317.9C412.9 370 364.7 416.9 308 423.9C251.3 430.9 186.2 398 133.5 410.9C80.8 423.7 40.4 482.3 0 540.8L0 0Z" fill="#eaeaea"></path><path d="M463.6 0C441.7 43.3 419.8 86.6 408.4 132.7C397 178.8 396.2 227.9 375 272.5C353.9 317.1 312.6 357.3 264 363.4C215.4 369.4 159.6 341.2 114.4 352.2C69.2 363.2 34.6 413.4 0 463.6L0 0Z" fill="#c1c1c1"></path><path d="M386.3 0C368.1 36.1 349.8 72.1 340.3 110.6C330.9 149 330.1 189.9 312.5 227.1C294.9 264.3 260.5 297.8 220 302.8C179.5 307.8 133 284.3 95.4 293.5C57.7 302.6 28.8 344.5 0 386.3L0 0Z" fill="#9a9a9a"></path><path d="M309 0C294.5 28.9 279.9 57.7 272.3 88.5C264.7 119.2 264.1 151.9 250 181.7C235.9 211.4 208.4 238.2 176 242.2C143.6 246.3 106.4 227.4 76.3 234.8C46.1 242.1 23.1 275.6 0 309L0 0Z" fill="#757575"></path><path d="M231.8 0C220.8 21.6 209.9 43.3 204.2 66.4C198.5 89.4 198.1 113.9 187.5 136.2C177 158.6 156.3 178.7 132 181.7C107.7 184.7 79.8 170.6 57.2 176.1C34.6 181.6 17.3 206.7 0 231.8L0 0Z" fill="#515151"></path><path d="M154.5 0C147.2 14.4 139.9 28.9 136.1 44.2C132.3 59.6 132.1 76 125 90.8C118 105.7 104.2 119.1 88 121.1C71.8 123.1 53.2 113.7 38.1 117.4C23.1 121.1 11.5 137.8 0 154.5L0 0Z" fill="#303030"></path><path d="M77.3 0C73.6 7.2 70 14.4 68.1 22.1C66.2 29.8 66 38 62.5 45.4C59 52.9 52.1 59.6 44 60.6C35.9 61.6 26.6 56.9 19.1 58.7C11.5 60.5 5.8 68.9 0 77.3L0 0Z" fill="#212121"></path></g></svg>