<svg id="visual" viewBox="0 0 900 600" width="900" height="600" xmlns="http://www.w3.org/2000/svg" xmlns:xlink="http://www.w3.org/1999/xlink" version="1.1"><rect x="0" y="0" width="900" height="600" fill="#fbfbfb"></rect><g fill="#0364b1"><circle r="14" cx="57" cy="327"></circle><circle r="3" cx="122" cy="389"></circle><circle r="4" cx="282" cy="538"></circle><circle r="7" cx="509" cy="113"></circle><circle r="4" cx="105" cy="408"></circle><circle r="4" cx="438" cy="298"></circle><circle r="12" cx="706" cy="471"></circle><circle r="2" cx="482" cy="489"></circle><circle r="5" cx="166" cy="263"></circle><circle r="9" cx="131" cy="299"></circle><circle r="5" cx="80" cy="30"></circle><circle r="4" cx="497" cy="229"></circle><circle r="8" cx="592" cy="151"></circle><circle r="11" cx="833" cy="494"></circle><circle r="7" cx="340" cy="324"></circle><circle r="6" cx="639" cy="423"></circle><circle r="9" cx="560" cy="62"></circle><circle r="5" cx="585" cy="41"></circle><circle r="10" cx="572" cy="116"></circle><circle r="10" cx="369" cy="515"></circle><circle r="8" cx="871" cy="35"></circle><circle r="6" cx="465" cy="196"></circle><circle r="2" cx="815" cy="311"></circle><circle r="7" cx="791" cy="284"></circle><circle r="10" cx="560" cy="566"></circle><circle r="8" cx="787" cy="330"></circle><circle r="11" cx="856" cy="117"></circle><circle r="12" cx="47" cy="430"></circle><circle r="12" cx="505" cy="452"></circle><circle r="4" cx="66" cy="540"></circle><circle r="7" cx="729" cy="372"></circle><circle r="5" cx="821" cy="417"></circle><circle r="12" cx="601" cy="272"></circle><circle r="3" cx="746" cy="82"></circle><circle r="6" cx="231" cy="91"></circle><circle r="12" cx="489" cy="410"></circle><circle r="2" cx="282" cy="580"></circle><circle r="7" cx="365" cy="265"></circle><circle r="3" cx="117" cy="112"></circle><circle r="5" cx="627" cy="473"></circle><circle r="4" cx="173" cy="48"></circle><circle r="9" cx="563" cy="472"></circle><circle r="6" cx="600" cy="107"></circle><circle r="5" cx="91" cy="468"></circle><circle r="7" cx="240" cy="143"></circle><circle r="2" cx="711" cy="85"></circle><circle r="2" cx="860" cy="504"></circle><circle r="4" cx="180" cy="147"></circle><circle r="12" cx="525" cy="299"></circle><circle r="2" cx="33" cy="350"></circle><circle r="7" cx="652" cy="69"></circle><circle r="7" cx="21" cy="305"></circle><circle r="8" cx="724" cy="509"></circle><circle r="11" cx="25" cy="131"></circle><circle r="2" cx="877" cy="227"></circle><circle r="2" cx="198" cy="369"></circle><circle r="10" cx="218" cy="574"></circle><circle r="11" cx="173" cy="398"></circle><circle r="5" cx="696" cy="176"></circle><circle r="4" cx="386" cy="431"></circle><circle r="11" cx="769" cy="406"></circle><circle r="2" cx="433" cy="80"></circle><circle r="12" cx="218" cy="334"></circle><circle r="11" cx="480" cy="126"></circle><circle r="12" cx="569" cy="346"></circle><circle r="7" cx="245" cy="465"></circle><circle r="5" cx="655" cy="363"></circle><circle r="3" cx="412" cy="317"></circle><circle r="3" cx="644" cy="268"></circle><circle r="6" cx="698" cy="363"></circle><circle r="7" cx="259" cy="555"></circle><circle r="10" cx="451" cy="242"></circle><circle r="3" cx="272" cy="253"></circle><circle r="8" cx="448" cy="576"></circle><circle r="12" cx="778" cy="238"></circle><circle r="5" cx="110" cy="354"></circle><circle r="4" cx="427" cy="370"></circle><circle r="4" cx="216" cy="302"></circle><circle r="7" cx="184" cy="224"></circle><circle r="3" cx="590" cy="208"></circle><circle r="6" cx="249" cy="307"></circle><circle r="4" cx="172" cy="574"></circle><circle r="6" cx="816" cy="388"></circle><circle r="2" cx="244" cy="51"></circle><circle r="3" cx="222" cy="230"></circle><circle r="3" cx="459" cy="402"></circle><circle r="4" cx="295" cy="183"></circle><circle r="6" cx="166" cy="464"></circle><circle r="6" cx="137" cy="487"></circle><circle r="4" cx="337" cy="251"></circle><circle r="3" cx="467" cy="520"></circle><circle r="5" cx="700" cy="45"></circle><circle r="9" cx="84" cy="241"></circle><circle r="3" cx="345" cy="103"></circle><circle r="3" cx="50" cy="79"></circle><circle r="8" cx="536" cy="187"></circle><circle r="6" cx="683" cy="235"></circle><circle r="8" cx="364" cy="484"></circle><circle r="3" cx="559" cy="267"></circle><circle r="8" cx="802" cy="76"></circle><circle r="7" cx="817" cy="240"></circle><circle r="11" cx="270" cy="415"></circle><circle r="10" cx="161" cy="518"></circle><circle r="7" cx="799" cy="359"></circle><circle r="12" cx="403" cy="550"></circle><circle r="7" cx="162" cy="305"></circle><circle r="3" cx="756" cy="562"></circle><circle r="7" cx="619" cy="181"></circle><circle r="11" cx="600" cy="312"></circle><circle r="4" cx="353" cy="192"></circle><circle r="6" cx="415" cy="132"></circle><circle r="12" cx="126" cy="192"></circle><circle r="2" cx="884" cy="170"></circle><circle r="3" cx="191" cy="251"></circle><circle r="8" cx="154" cy="83"></circle><circle r="7" cx="386" cy="303"></circle><circle r="2" cx="132" cy="573"></circle><circle r="2" cx="828" cy="540"></circle><circle r="2" cx="95" cy="185"></circle><circle r="12" cx="537" cy="465"></circle><circle r="4" cx="866" cy="423"></circle><circle r="9" cx="834" cy="578"></circle><circle r="9" cx="647" cy="312"></circle><circle r="8" cx="870" cy="473"></circle><circle r="7" cx="583" cy="535"></circle><circle r="9" cx="781" cy="198"></circle><circle r="7" cx="678" cy="427"></circle><circle r="2" cx="561" cy="387"></circle><circle r="6" cx="826" cy="29"></circle><circle r="7" cx="738" cy="255"></circle><circle r="6" cx="42" cy="219"></circle><circle r="10" cx="706" cy="14"></circle><circle r="2" cx="641" cy="101"></circle><circle r="4" cx="748" cy="225"></circle><circle r="9" cx="368" cy="345"></circle><circle r="7" cx="61" cy="495"></circle><circle r="8" cx="262" cy="96"></circle><circle r="12" cx="466" cy="68"></circle><circle r="7" cx="321" cy="91"></circle><circle r="11" cx="81" cy="57"></circle><circle r="5" cx="488" cy="325"></circle><circle r="8" cx="302" cy="415"></circle><circle r="7" cx="519" cy="413"></circle><circle r="11" cx="867" cy="556"></circle><circle r="3" cx="33" cy="34"></circle><circle r="4" cx="419" cy="422"></circle><circle r="7" cx="520" cy="542"></circle><circle r="8" cx="546" cy="334"></circle><circle r="6" cx="577" cy="495"></circle><circle r="4" cx="370" cy="150"></circle><circle r="9" cx="868" cy="63"></circle><circle r="7" cx="848" cy="350"></circle><circle r="8" cx="707" cy="145"></circle><circle r="4" cx="694" cy="559"></circle><circle r="3" cx="125" cy="251"></circle><circle r="2" cx="554" cy="528"></circle><circle r="3" cx="767" cy="152"></circle><circle r="2" cx="376" cy="546"></circle><circle r="4" cx="331" cy="510"></circle><circle r="11" cx="520" cy="248"></circle><circle r="5" cx="480" cy="154"></circle><circle r="10" cx="562" cy="446"></circle><circle r="7" cx="734" cy="199"></circle><circle r="2" cx="76" cy="272"></circle><circle r="10" cx="684" cy="87"></circle><circle r="3" cx="797" cy="568"></circle><circle r="5" cx="773" cy="498"></circle><circle r="8" cx="127" cy="141"></circle><circle r="6" cx="18" cy="448"></circle><circle r="7" cx="21" cy="236"></circle></g></svg>