<svg id="visual" viewBox="0 0 960 540" width="960" height="540" xmlns="http://www.w3.org/2000/svg" xmlns:xlink="http://www.w3.org/1999/xlink" version="1.1"><rect x="0" y="0" width="960" height="540" fill="#000000"></rect><g fill="#ffffff"><circle r="43" cx="551" cy="500"></circle><circle r="3" cx="810" cy="442"></circle><circle r="32" cx="640" cy="442"></circle><circle r="21" cx="221" cy="256"></circle><circle r="29" cx="707" cy="372"></circle><circle r="37" cx="105" cy="2"></circle><circle r="9" cx="115" cy="314"></circle><circle r="30" cx="524" cy="36"></circle><circle r="41" cx="806" cy="228"></circle><circle r="13" cx="295" cy="426"></circle><circle r="28" cx="100" cy="430"></circle><circle r="16" cx="887" cy="403"></circle><circle r="39" cx="188" cy="67"></circle><circle r="22" cx="324" cy="328"></circle><circle r="7" cx="462" cy="252"></circle><circle r="17" cx="56" cy="90"></circle><circle r="23" cx="638" cy="320"></circle><circle r="23" cx="90" cy="175"></circle><circle r="15" cx="442" cy="445"></circle><circle r="22" cx="190" cy="382"></circle><circle r="31" cx="951" cy="297"></circle><circle r="11" cx="512" cy="340"></circle><circle r="41" cx="382" cy="6"></circle><circle r="11" cx="653" cy="190"></circle><circle r="15" cx="676" cy="25"></circle><circle r="13" cx="205" cy="483"></circle><circle r="20" cx="272" cy="24"></circle><circle r="34" cx="558" cy="238"></circle><circle r="2" cx="732" cy="518"></circle><circle r="20" cx="366" cy="236"></circle><circle r="25" cx="8" cy="230"></circle><circle r="24" cx="546" cy="127"></circle><circle r="31" cx="307" cy="135"></circle><circle r="26" cx="793" cy="112"></circle><circle r="6" cx="350" cy="523"></circle><circle r="18" cx="869" cy="3"></circle><circle r="41" cx="435" cy="100"></circle><circle r="4" cx="36" cy="345"></circle><circle r="5" cx="726" cy="275"></circle><circle r="20" cx="738" cy="177"></circle><circle r="3" cx="949" cy="467"></circle><circle r="32" cx="948" cy="182"></circle><circle r="32" cx="15" cy="6"></circle><circle r="16" cx="401" cy="364"></circle><circle r="27" cx="219" cy="168"></circle><circle r="4" cx="632" cy="535"></circle><circle r="39" cx="951" cy="48"></circle><circle r="6" cx="90" cy="516"></circle><circle r="36" cx="865" cy="292"></circle><circle r="26" cx="785" cy="24"></circle><circle r="15" cx="850" cy="521"></circle><circle r="24" cx="799" cy="351"></circle><circle r="13" cx="461" cy="535"></circle><circle r="7" cx="889" cy="109"></circle><circle r="25" cx="3" cy="522"></circle><circle r="17" cx="640" cy="107"></circle></g></svg>