<svg id="visual" viewBox="0 0 900 600" width="900" height="600" xmlns="http://www.w3.org/2000/svg" xmlns:xlink="http://www.w3.org/1999/xlink" version="1.1"><rect x="0" y="0" width="900" height="600" fill="#008df8"></rect><defs><linearGradient id="grad1_0" x1="33.3%" y1="100%" x2="100%" y2="0%"><stop offset="20%" stop-color="#f0940a" stop-opacity="1"></stop><stop offset="80%" stop-color="#f0940a" stop-opacity="1"></stop></linearGradient></defs><defs><linearGradient id="grad1_1" x1="33.3%" y1="100%" x2="100%" y2="0%"><stop offset="20%" stop-color="#f0940a" stop-opacity="1"></stop><stop offset="80%" stop-color="#ff7647" stop-opacity="1"></stop></linearGradient></defs><defs><linearGradient id="grad1_2" x1="33.3%" y1="100%" x2="100%" y2="0%"><stop offset="20%" stop-color="#ff5f78" stop-opacity="1"></stop><stop offset="80%" stop-color="#ff7647" stop-opacity="1"></stop></linearGradient></defs><defs><linearGradient id="grad1_3" x1="33.3%" y1="100%" x2="100%" y2="0%"><stop offset="20%" stop-color="#ff5f78" stop-opacity="1"></stop><stop offset="80%" stop-color="#ff5baa" stop-opacity="1"></stop></linearGradient></defs><defs><linearGradient id="grad1_4" x1="33.3%" y1="100%" x2="100%" y2="0%"><stop offset="20%" stop-color="#d96bd5" stop-opacity="1"></stop><stop offset="80%" stop-color="#ff5baa" stop-opacity="1"></stop></linearGradient></defs><defs><linearGradient id="grad1_5" x1="33.3%" y1="100%" x2="100%" y2="0%"><stop offset="20%" stop-color="#d96bd5" stop-opacity="1"></stop><stop offset="80%" stop-color="#977ef1" stop-opacity="1"></stop></linearGradient></defs><defs><linearGradient id="grad1_6" x1="33.3%" y1="100%" x2="100%" y2="0%"><stop offset="20%" stop-color="#008df8" stop-opacity="1"></stop><stop offset="80%" stop-color="#977ef1" stop-opacity="1"></stop></linearGradient></defs><defs><linearGradient id="grad2_0" x1="0%" y1="100%" x2="66.7%" y2="0%"><stop offset="20%" stop-color="#f0940a" stop-opacity="1"></stop><stop offset="80%" stop-color="#f0940a" stop-opacity="1"></stop></linearGradient></defs><defs><linearGradient id="grad2_1" x1="0%" y1="100%" x2="66.7%" y2="0%"><stop offset="20%" stop-color="#ff7647" stop-opacity="1"></stop><stop offset="80%" stop-color="#f0940a" stop-opacity="1"></stop></linearGradient></defs><defs><linearGradient id="grad2_2" x1="0%" y1="100%" x2="66.7%" y2="0%"><stop offset="20%" stop-color="#ff7647" stop-opacity="1"></stop><stop offset="80%" stop-color="#ff5f78" stop-opacity="1"></stop></linearGradient></defs><defs><linearGradient id="grad2_3" x1="0%" y1="100%" x2="66.7%" y2="0%"><stop offset="20%" stop-color="#ff5baa" stop-opacity="1"></stop><stop offset="80%" stop-color="#ff5f78" stop-opacity="1"></stop></linearGradient></defs><defs><linearGradient id="grad2_4" x1="0%" y1="100%" x2="66.7%" y2="0%"><stop offset="20%" stop-color="#ff5baa" stop-opacity="1"></stop><stop offset="80%" stop-color="#d96bd5" stop-opacity="1"></stop></linearGradient></defs><defs><linearGradient id="grad2_5" x1="0%" y1="100%" x2="66.7%" y2="0%"><stop offset="20%" stop-color="#977ef1" stop-opacity="1"></stop><stop offset="80%" stop-color="#d96bd5" stop-opacity="1"></stop></linearGradient></defs><defs><linearGradient id="grad2_6" x1="0%" y1="100%" x2="66.7%" y2="0%"><stop offset="20%" stop-color="#977ef1" stop-opacity="1"></stop><stop offset="80%" stop-color="#008df8" stop-opacity="1"></stop></linearGradient></defs><g transform="translate(900, 600)"><path d="M-540.8 0C-525.2 -37.6 -509.5 -75.2 -503.1 -114.8C-496.7 -154.4 -499.5 -196 -487.3 -234.7C-475 -273.3 -447.7 -309 -412 -328.6C-376.3 -348.2 -332.2 -351.8 -303 -380C-273.8 -408.2 -259.5 -461 -227.4 -472.1C-195.2 -483.3 -145.2 -452.7 -104.4 -457.2C-63.5 -461.8 -31.7 -501.3 0 -540.8L0 0Z" fill="#6886f7"></path><path d="M-463.6 0C-450.1 -32.2 -436.7 -64.5 -431.2 -98.4C-425.7 -132.4 -428.1 -168 -417.7 -201.1C-407.2 -234.2 -383.8 -264.8 -353.2 -281.6C-322.6 -298.5 -284.8 -301.5 -259.7 -325.7C-234.7 -349.9 -222.4 -395.1 -194.9 -404.7C-167.3 -414.2 -124.5 -388.1 -89.5 -391.9C-54.4 -395.8 -27.2 -429.7 0 -463.6L0 0Z" fill="#bb75e5"></path><path d="M-386.3 0C-375.1 -26.9 -363.9 -53.7 -359.3 -82C-354.8 -110.3 -356.8 -140 -348.1 -167.6C-339.3 -195.2 -319.8 -220.7 -294.3 -234.7C-268.8 -248.7 -237.3 -251.3 -216.4 -271.4C-195.6 -291.5 -185.4 -329.3 -162.4 -337.2C-139.4 -345.2 -103.7 -323.4 -74.5 -326.6C-45.4 -329.8 -22.7 -358.1 0 -386.3L0 0Z" fill="#f161c1"></path><path d="M-309 0C-300.1 -21.5 -291.1 -43 -287.5 -65.6C-283.8 -88.2 -285.4 -112 -278.4 -134.1C-271.5 -156.2 -255.8 -176.5 -235.4 -187.8C-215 -199 -189.8 -201 -173.2 -217.1C-156.5 -233.2 -148.3 -263.4 -129.9 -269.8C-111.5 -276.1 -83 -258.7 -59.6 -261.3C-36.3 -263.9 -18.1 -286.5 0 -309L0 0Z" fill="#ff5a91"></path><path d="M-231.8 0C-225.1 -16.1 -218.3 -32.2 -215.6 -49.2C-212.9 -66.2 -214.1 -84 -208.8 -100.6C-203.6 -117.1 -191.9 -132.4 -176.6 -140.8C-161.3 -149.2 -142.4 -150.8 -129.9 -162.8C-117.3 -174.9 -111.2 -197.6 -97.4 -202.3C-83.7 -207.1 -62.2 -194 -44.7 -196C-27.2 -197.9 -13.6 -214.8 0 -231.8L0 0Z" fill="#ff695f"></path><path d="M-154.5 0C-150 -10.7 -145.6 -21.5 -143.7 -32.8C-141.9 -44.1 -142.7 -56 -139.2 -67C-135.7 -78.1 -127.9 -88.3 -117.7 -93.9C-107.5 -99.5 -94.9 -100.5 -86.6 -108.6C-78.2 -116.6 -74.1 -131.7 -65 -134.9C-55.8 -138.1 -41.5 -129.4 -29.8 -130.6C-18.1 -131.9 -9.1 -143.2 0 -154.5L0 0Z" fill="#ff852d"></path><path d="M-77.3 0C-75 -5.4 -72.8 -10.7 -71.9 -16.4C-71 -22.1 -71.4 -28 -69.6 -33.5C-67.9 -39 -64 -44.1 -58.9 -46.9C-53.8 -49.7 -47.5 -50.3 -43.3 -54.3C-39.1 -58.3 -37.1 -65.9 -32.5 -67.4C-27.9 -69 -20.7 -64.7 -14.9 -65.3C-9.1 -66 -4.5 -71.6 0 -77.3L0 0Z" fill="#f0940a"></path></g><g transform="translate(0, 0)"><path d="M540.8 0C511 34.6 481.1 69.1 473.8 108.1C466.5 147.2 481.8 190.6 474.8 228.7C467.8 266.7 438.7 299.3 402.6 321.1C366.6 342.9 323.8 353.8 285.6 358.1C247.4 362.4 213.8 360.1 189.6 393.7C165.4 427.3 150.4 496.8 120.3 527.3C90.3 557.8 45.1 549.3 0 540.8L0 0Z" fill="#6886f7"></path><path d="M463.6 0C438 29.6 412.4 59.3 406.1 92.7C399.9 126.1 412.9 163.4 407 196C401 228.6 376 256.6 345.1 275.2C314.2 293.9 277.5 303.2 244.8 306.9C212 310.6 183.3 308.7 162.5 337.5C141.7 366.3 128.9 425.8 103.2 451.9C77.4 478.1 38.7 470.8 0 463.6L0 0Z" fill="#bb75e5"></path><path d="M386.3 0C365 24.7 343.7 49.4 338.4 77.2C333.2 105.1 344.1 136.2 339.2 163.3C334.2 190.5 313.3 213.8 287.6 229.4C261.9 244.9 231.3 252.7 204 255.8C176.7 258.9 152.7 257.2 135.4 281.2C118.1 305.2 107.4 354.8 86 376.6C64.5 398.4 32.2 392.4 0 386.3L0 0Z" fill="#f161c1"></path><path d="M309 0C292 19.8 274.9 39.5 270.8 61.8C266.6 84.1 275.3 108.9 271.3 130.7C267.3 152.4 250.7 171 230.1 183.5C209.5 195.9 185 202.2 163.2 204.6C141.4 207.1 122.2 205.8 108.3 225C94.5 244.2 85.9 283.9 68.8 301.3C51.6 318.7 25.8 313.9 0 309L0 0Z" fill="#ff5a91"></path><path d="M231.8 0C219 14.8 206.2 29.6 203.1 46.3C199.9 63.1 206.5 81.7 203.5 98C200.5 114.3 188 128.3 172.6 137.6C157.1 146.9 138.8 151.6 122.4 153.5C106 155.3 91.6 154.3 81.3 168.7C70.9 183.1 64.5 212.9 51.6 226C38.7 239 19.3 235.4 0 231.8L0 0Z" fill="#ff695f"></path><path d="M154.5 0C146 9.9 137.5 19.8 135.4 30.9C133.3 42 137.6 54.5 135.7 65.3C133.7 76.2 125.3 85.5 115 91.7C104.7 98 92.5 101.1 81.6 102.3C70.7 103.5 61.1 102.9 54.2 112.5C47.2 122.1 43 141.9 34.4 150.6C25.8 159.4 12.9 156.9 0 154.5L0 0Z" fill="#ff852d"></path><path d="M77.3 0C73 4.9 68.7 9.9 67.7 15.4C66.6 21 68.8 27.2 67.8 32.7C66.8 38.1 62.7 42.8 57.5 45.9C52.4 49 46.3 50.5 40.8 51.2C35.3 51.8 30.5 51.4 27.1 56.2C23.6 61 21.5 71 17.2 75.3C12.9 79.7 6.4 78.5 0 77.3L0 0Z" fill="#f0940a"></path></g></svg>