<svg id="visual" viewBox="0 0 1440 320" xmlns="http://www.w3.org/2000/svg" xmlns:xlink="http://www.w3.org/1999/xlink" version="1.1"><rect x="0" y="0" width="100" height="100" fill="#000000"></rect><path d="M0 447L21.5 456.2C43 465.3 86 483.7 128.8 474.3C171.7 465 214.3 428 257.2 428C300 428 343 465 385.8 477.5C428.7 490 471.3 478 514.2 457.5C557 437 600 408 642.8 414.3C685.7 420.7 728.3 462.3 771.2 471.7C814 481 857 458 878.5 446.5L900 435L900 601L878.5 601C857 601 814 601 771.2 601C728.3 601 685.7 601 642.8 601C600 601 557 601 514.2 601C471.3 601 428.7 601 385.8 601C343 601 300 601 257.2 601C214.3 601 171.7 601 128.8 601C86 601 43 601 21.5 601L0 601Z" fill="#ffffff" stroke-linecap="round" stroke-linejoin="miter"></path></svg>