<svg id="visual" viewBox="0 0 900 600" width="900" height="600" xmlns="http://www.w3.org/2000/svg" xmlns:xlink="http://www.w3.org/1999/xlink" version="1.1"><rect x="0" y="0" width="900" height="600" fill="#ffffff"></rect><g transform="translate(866.515534012462 618.4785811124054)"><path d="M391.8 -661.9C489.2 -622.3 536.9 -479.9 605.5 -352.5C674 -225 763.5 -112.5 779 8.9C794.4 130.3 735.8 260.7 614 295.9C492.1 331 307 271.1 194.1 329.6C81.3 388.1 40.6 565 -35 625.7C-110.7 686.3 -221.3 630.7 -362.1 588.3C-502.8 545.9 -673.6 516.7 -707.7 420.8C-741.9 325 -639.5 162.5 -548.7 52.4C-457.9 -57.7 -378.8 -115.3 -366.8 -249.7C-354.9 -384.1 -410.2 -595.2 -360.3 -662.2C-310.3 -729.2 -155.2 -652.1 -4 -645.2C147.2 -638.2 294.3 -701.5 391.8 -661.9" fill="#000000"></path></g></svg>