<svg id="visual" viewBox="0 0 960 540" width="960" height="540" xmlns="http://www.w3.org/2000/svg" xmlns:xlink="http://www.w3.org/1999/xlink" version="1.1"><rect x="0" y="0" width="960" height="540" fill="#001220"></rect><defs><linearGradient id="grad1_0" x1="43.8%" y1="100%" x2="100%" y2="0%"><stop offset="14.444444444444446%" stop-color="#fbae3c" stop-opacity="1"></stop><stop offset="85.55555555555554%" stop-color="#fbae3c" stop-opacity="1"></stop></linearGradient></defs><defs><linearGradient id="grad1_1" x1="43.8%" y1="100%" x2="100%" y2="0%"><stop offset="14.444444444444446%" stop-color="#fbae3c" stop-opacity="1"></stop><stop offset="85.55555555555554%" stop-color="#eb7458" stop-opacity="1"></stop></linearGradient></defs><defs><linearGradient id="grad1_2" x1="43.8%" y1="100%" x2="100%" y2="0%"><stop offset="14.444444444444446%" stop-color="#b84e6c" stop-opacity="1"></stop><stop offset="85.55555555555554%" stop-color="#eb7458" stop-opacity="1"></stop></linearGradient></defs><defs><linearGradient id="grad1_3" x1="43.8%" y1="100%" x2="100%" y2="0%"><stop offset="14.444444444444446%" stop-color="#b84e6c" stop-opacity="1"></stop><stop offset="85.55555555555554%" stop-color="#713c69" stop-opacity="1"></stop></linearGradient></defs><defs><linearGradient id="grad1_4" x1="43.8%" y1="100%" x2="100%" y2="0%"><stop offset="14.444444444444446%" stop-color="#2d2b4c" stop-opacity="1"></stop><stop offset="85.55555555555554%" stop-color="#713c69" stop-opacity="1"></stop></linearGradient></defs><defs><linearGradient id="grad1_5" x1="43.8%" y1="100%" x2="100%" y2="0%"><stop offset="14.444444444444446%" stop-color="#2d2b4c" stop-opacity="1"></stop><stop offset="85.55555555555554%" stop-color="#001220" stop-opacity="1"></stop></linearGradient></defs><defs><linearGradient id="grad2_0" x1="0%" y1="100%" x2="56.3%" y2="0%"><stop offset="14.444444444444446%" stop-color="#fbae3c" stop-opacity="1"></stop><stop offset="85.55555555555554%" stop-color="#fbae3c" stop-opacity="1"></stop></linearGradient></defs><defs><linearGradient id="grad2_1" x1="0%" y1="100%" x2="56.3%" y2="0%"><stop offset="14.444444444444446%" stop-color="#eb7458" stop-opacity="1"></stop><stop offset="85.55555555555554%" stop-color="#fbae3c" stop-opacity="1"></stop></linearGradient></defs><defs><linearGradient id="grad2_2" x1="0%" y1="100%" x2="56.3%" y2="0%"><stop offset="14.444444444444446%" stop-color="#eb7458" stop-opacity="1"></stop><stop offset="85.55555555555554%" stop-color="#b84e6c" stop-opacity="1"></stop></linearGradient></defs><defs><linearGradient id="grad2_3" x1="0%" y1="100%" x2="56.3%" y2="0%"><stop offset="14.444444444444446%" stop-color="#713c69" stop-opacity="1"></stop><stop offset="85.55555555555554%" stop-color="#b84e6c" stop-opacity="1"></stop></linearGradient></defs><defs><linearGradient id="grad2_4" x1="0%" y1="100%" x2="56.3%" y2="0%"><stop offset="14.444444444444446%" stop-color="#713c69" stop-opacity="1"></stop><stop offset="85.55555555555554%" stop-color="#2d2b4c" stop-opacity="1"></stop></linearGradient></defs><defs><linearGradient id="grad2_5" x1="0%" y1="100%" x2="56.3%" y2="0%"><stop offset="14.444444444444446%" stop-color="#001220" stop-opacity="1"></stop><stop offset="85.55555555555554%" stop-color="#2d2b4c" stop-opacity="1"></stop></linearGradient></defs><g transform="translate(960, 540)"><path d="M-378 0C-375.4 -34.3 -372.7 -68.6 -357.4 -95.8C-342 -122.9 -314 -143 -297.9 -172C-281.8 -201 -277.7 -238.9 -255.3 -255.3C-232.8 -271.6 -191.9 -266.4 -164.5 -284.9C-137.1 -303.4 -123 -345.7 -97.8 -365.1C-72.7 -384.6 -36.3 -381.3 0 -378L0 0Z" fill="#131f37"></path><path d="M-315 0C-312.8 -28.6 -310.6 -57.2 -297.8 -79.8C-285 -102.5 -261.7 -119.2 -248.3 -143.3C-234.9 -167.5 -231.4 -199.1 -212.7 -212.7C-194 -226.4 -160 -222 -137.1 -237.4C-114.2 -252.9 -102.5 -288 -81.5 -304.3C-60.5 -320.5 -30.3 -317.7 0 -315L0 0Z" fill="#4d345e"></path><path d="M-252 0C-250.2 -22.9 -248.5 -45.7 -238.3 -63.8C-228 -82 -209.3 -95.3 -198.6 -114.7C-187.9 -134 -185.2 -159.3 -170.2 -170.2C-155.2 -181.1 -128 -177.6 -109.7 -189.9C-91.4 -202.3 -82 -230.4 -65.2 -243.4C-48.4 -256.4 -24.2 -254.2 0 -252L0 0Z" fill="#96446e"></path><path d="M-189 0C-187.7 -17.1 -186.4 -34.3 -178.7 -47.9C-171 -61.5 -157 -71.5 -149 -86C-140.9 -100.5 -138.9 -119.5 -127.6 -127.6C-116.4 -135.8 -96 -133.2 -82.3 -142.5C-68.5 -151.7 -61.5 -172.8 -48.9 -182.6C-36.3 -192.3 -18.2 -190.6 0 -189L0 0Z" fill="#d55e64"></path><path d="M-126 0C-125.1 -11.4 -124.2 -22.9 -119.1 -31.9C-114 -41 -104.7 -47.7 -99.3 -57.3C-93.9 -67 -92.6 -79.6 -85.1 -85.1C-77.6 -90.5 -64 -88.8 -54.8 -95C-45.7 -101.1 -41 -115.2 -32.6 -121.7C-24.2 -128.2 -12.1 -127.1 0 -126L0 0Z" fill="#f88f4a"></path><path d="M-63 0C-62.6 -5.7 -62.1 -11.4 -59.6 -16C-57 -20.5 -52.3 -23.8 -49.7 -28.7C-47 -33.5 -46.3 -39.8 -42.5 -42.5C-38.8 -45.3 -32 -44.4 -27.4 -47.5C-22.8 -50.6 -20.5 -57.6 -16.3 -60.9C-12.1 -64.1 -6.1 -63.5 0 -63L0 0Z" fill="#fbae3c"></path></g><g transform="translate(0, 0)"><path d="M378 0C362.7 29.7 347.4 59.3 340 91.1C332.7 122.9 333.3 156.8 317.8 183.5C302.4 210.2 270.9 229.5 241.1 241.1C211.4 252.7 183.4 256.5 161.5 279.7C139.6 302.9 123.7 345.5 97.8 365.1C71.9 384.7 36 381.4 0 378L0 0Z" fill="#131f37"></path><path d="M315 0C302.2 24.7 289.5 49.4 283.3 75.9C277.2 102.4 277.7 130.7 264.9 152.9C252 175.1 225.7 191.3 200.9 200.9C176.1 210.6 152.8 213.8 134.6 233.1C116.3 252.4 103.1 287.9 81.5 304.3C59.9 320.6 30 317.8 0 315L0 0Z" fill="#4d345e"></path><path d="M252 0C241.8 19.8 231.6 39.5 226.7 60.7C221.8 81.9 222.2 104.6 211.9 122.3C201.6 140.1 180.6 153 160.7 160.7C140.9 168.5 122.3 171 107.7 186.5C93.1 201.9 82.5 230.3 65.2 243.4C48 256.5 24 254.2 0 252L0 0Z" fill="#96446e"></path><path d="M189 0C181.3 14.8 173.7 29.7 170 45.6C166.3 61.5 166.6 78.4 158.9 91.7C151.2 105.1 135.4 114.8 120.6 120.6C105.7 126.4 91.7 128.3 80.8 139.9C69.8 151.5 61.9 172.8 48.9 182.6C36 192.4 18 190.7 0 189L0 0Z" fill="#d55e64"></path><path d="M126 0C120.9 9.9 115.8 19.8 113.3 30.4C110.9 41 111.1 52.3 105.9 61.2C100.8 70.1 90.3 76.5 80.4 80.4C70.5 84.2 61.1 85.5 53.8 93.2C46.5 101 41.2 115.2 32.6 121.7C24 128.2 12 127.1 0 126L0 0Z" fill="#f88f4a"></path><path d="M63 0C60.4 4.9 57.9 9.9 56.7 15.2C55.4 20.5 55.5 26.1 53 30.6C50.4 35 45.1 38.3 40.2 40.2C35.2 42.1 30.6 42.8 26.9 46.6C23.3 50.5 20.6 57.6 16.3 60.9C12 64.1 6 63.6 0 63L0 0Z" fill="#fbae3c"></path></g></svg>