<svg id="visual" viewBox="0 0 1000 100" width="1000" height="100" xmlns="http://www.w3.org/2000/svg" xmlns:xlink="http://www.w3.org/1999/xlink" version="1.1"><rect x="0" y="0" width="1000" height="100" fill="#000000"></rect><path d="M0 17L18.5 16C37 15 74 13 111 25.5C148 38 185 65 222 73C259 81 296 70 333 55.2C370 40.3 407 21.7 444.2 16.7C481.3 11.7 518.7 20.3 555.8 31.3C593 42.3 630 55.7 667 53.5C704 51.3 741 33.7 778 29.2C815 24.7 852 33.3 889 34.5C926 35.7 963 29.3 981.5 26.2L1000 23L1000 101L981.5 101C963 101 926 101 889 101C852 101 815 101 778 101C741 101 704 101 667 101C630 101 593 101 555.8 101C518.7 101 481.3 101 444.2 101C407 101 370 101 333 101C296 101 259 101 222 101C185 101 148 101 111 101C74 101 37 101 18.5 101L0 101Z" fill="#FFFFFF" stroke-linecap="round" stroke-linejoin="miter"></path></svg>