<svg id="visual" viewBox="0 0 900 600" width="900" height="600" xmlns="http://www.w3.org/2000/svg" xmlns:xlink="http://www.w3.org/1999/xlink" version="1.1"><rect x="0" y="0" width="900" height="600" fill="#001220"></rect><defs><linearGradient id="grad1_0" x1="33.3%" y1="0%" x2="100%" y2="100%"><stop offset="20%" stop-color="#de9527" stop-opacity="1"></stop><stop offset="80%" stop-color="#de9527" stop-opacity="1"></stop></linearGradient></defs><defs><linearGradient id="grad1_1" x1="33.3%" y1="0%" x2="100%" y2="100%"><stop offset="20%" stop-color="#de9527" stop-opacity="1"></stop><stop offset="80%" stop-color="#ca5750" stop-opacity="1"></stop></linearGradient></defs><defs><linearGradient id="grad1_2" x1="33.3%" y1="0%" x2="100%" y2="100%"><stop offset="20%" stop-color="#883963" stop-opacity="1"></stop><stop offset="80%" stop-color="#ca5750" stop-opacity="1"></stop></linearGradient></defs><defs><linearGradient id="grad1_3" x1="33.3%" y1="0%" x2="100%" y2="100%"><stop offset="20%" stop-color="#883963" stop-opacity="1"></stop><stop offset="80%" stop-color="#372b50" stop-opacity="1"></stop></linearGradient></defs><defs><linearGradient id="grad1_4" x1="33.3%" y1="0%" x2="100%" y2="100%"><stop offset="20%" stop-color="#001220" stop-opacity="1"></stop><stop offset="80%" stop-color="#372b50" stop-opacity="1"></stop></linearGradient></defs><defs><linearGradient id="grad2_0" x1="0%" y1="0%" x2="66.7%" y2="100%"><stop offset="20%" stop-color="#de9527" stop-opacity="1"></stop><stop offset="80%" stop-color="#de9527" stop-opacity="1"></stop></linearGradient></defs><defs><linearGradient id="grad2_1" x1="0%" y1="0%" x2="66.7%" y2="100%"><stop offset="20%" stop-color="#ca5750" stop-opacity="1"></stop><stop offset="80%" stop-color="#de9527" stop-opacity="1"></stop></linearGradient></defs><defs><linearGradient id="grad2_2" x1="0%" y1="0%" x2="66.7%" y2="100%"><stop offset="20%" stop-color="#ca5750" stop-opacity="1"></stop><stop offset="80%" stop-color="#883963" stop-opacity="1"></stop></linearGradient></defs><defs><linearGradient id="grad2_3" x1="0%" y1="0%" x2="66.7%" y2="100%"><stop offset="20%" stop-color="#372b50" stop-opacity="1"></stop><stop offset="80%" stop-color="#883963" stop-opacity="1"></stop></linearGradient></defs><defs><linearGradient id="grad2_4" x1="0%" y1="0%" x2="66.7%" y2="100%"><stop offset="20%" stop-color="#372b50" stop-opacity="1"></stop><stop offset="80%" stop-color="#001220" stop-opacity="1"></stop></linearGradient></defs><g transform="translate(900, 0)"><path d="M0 324.5C-39.8 312.1 -79.6 299.7 -117.9 284.6C-156.1 269.4 -192.9 251.4 -224.9 224.9C-256.8 198.3 -284 163.1 -299.8 124.2C-315.6 85.3 -320.1 42.6 -324.5 0L0 0Z" fill="#162039"></path><path d="M0 259.6C-31.8 249.7 -63.7 239.8 -94.3 227.6C-124.9 215.5 -154.3 201.1 -179.9 179.9C-205.5 158.6 -227.2 130.5 -239.8 99.3C-252.5 68.2 -256 34.1 -259.6 0L0 0Z" fill="#5f335e"></path><path d="M0 194.7C-23.9 187.3 -47.8 179.8 -70.7 170.7C-93.7 161.6 -115.7 150.9 -134.9 134.9C-154.1 119 -170.4 97.9 -179.9 74.5C-189.4 51.2 -192 25.6 -194.7 0L0 0Z" fill="#ad445d"></path><path d="M0 129.8C-15.9 124.8 -31.8 119.9 -47.1 113.8C-62.5 107.8 -77.2 100.6 -89.9 89.9C-102.7 79.3 -113.6 65.2 -119.9 49.7C-126.2 34.1 -128 17.1 -129.8 0L0 0Z" fill="#db733d"></path><path d="M0 64.9C-8 62.4 -15.9 59.9 -23.6 56.9C-31.2 53.9 -38.6 50.3 -45 45C-51.4 39.7 -56.8 32.6 -60 24.8C-63.1 17.1 -64 8.5 -64.9 0L0 0Z" fill="#de9527"></path></g><g transform="translate(0, 600)"><path d="M0 -324.5C40.3 -314.4 80.5 -304.3 120.2 -290.1C159.8 -275.9 198.9 -257.7 229.5 -229.5C260 -201.2 282.1 -162.8 296.6 -122.8C311 -82.9 317.7 -41.5 324.5 0L0 0Z" fill="#162039"></path><path d="M0 -259.6C32.2 -251.5 64.4 -243.4 96.1 -232.1C127.9 -220.8 159.1 -206.2 183.6 -183.6C208 -160.9 225.7 -130.2 237.3 -98.3C248.8 -66.3 254.2 -33.2 259.6 0L0 0Z" fill="#5f335e"></path><path d="M0 -194.7C24.2 -188.6 48.3 -182.6 72.1 -174.1C95.9 -165.6 119.3 -154.6 137.7 -137.7C156 -120.7 169.3 -97.7 177.9 -73.7C186.6 -49.7 190.6 -24.9 194.7 0L0 0Z" fill="#ad445d"></path><path d="M0 -129.8C16.1 -125.8 32.2 -121.7 48.1 -116C63.9 -110.4 79.6 -103.1 91.8 -91.8C104 -80.5 112.9 -65.1 118.6 -49.1C124.4 -33.2 127.1 -16.6 129.8 0L0 0Z" fill="#db733d"></path><path d="M0 -64.9C8.1 -62.9 16.1 -60.9 24 -58C32 -55.2 39.8 -51.5 45.9 -45.9C52 -40.2 56.4 -32.6 59.3 -24.6C62.2 -16.6 63.5 -8.3 64.9 0L0 0Z" fill="#de9527"></path></g></svg>